<svg xmlns="http://www.w3.org/2000/svg" xmlns:xlink="http://www.w3.org/1999/xlink" width="1122" zoomAndPan="magnify" viewBox="0 0 841.92 595.499987" height="793" preserveAspectRatio="xMidYMid meet" version="1.0"><defs><filter x="0%" y="0%" width="100%" height="100%" id="97ac230f68"><feColorMatrix values="0 0 0 0 1 0 0 0 0 1 0 0 0 0 1 0 0 0 1 0" color-interpolation-filters="sRGB"/></filter><g/><clipPath id="912b815c03"><path d="M 173.445312 59.476562 L 619.011719 59.476562 L 619.011719 505.046875 L 173.445312 505.046875 Z M 173.445312 59.476562 " clip-rule="nonzero"/></clipPath><clipPath id="0f779233ee"><path d="M 396.226562 59.476562 C 273.1875 59.476562 173.445312 159.222656 173.445312 282.261719 C 173.445312 405.300781 273.1875 505.046875 396.226562 505.046875 C 519.269531 505.046875 619.011719 405.300781 619.011719 282.261719 C 619.011719 159.222656 519.269531 59.476562 396.226562 59.476562 Z M 396.226562 59.476562 " clip-rule="nonzero"/></clipPath><clipPath id="f33cc4a22a"><path d="M 173.445312 59.476562 L 619.003906 59.476562 L 619.003906 505.035156 L 173.445312 505.035156 Z M 173.445312 59.476562 " clip-rule="nonzero"/></clipPath><clipPath id="857c498bcb"><path d="M 396.222656 59.476562 C 273.1875 59.476562 173.445312 159.21875 173.445312 282.257812 C 173.445312 405.296875 273.1875 505.035156 396.222656 505.035156 C 519.261719 505.035156 619.003906 405.296875 619.003906 282.257812 C 619.003906 159.21875 519.261719 59.476562 396.222656 59.476562 Z M 396.222656 59.476562 " clip-rule="nonzero"/></clipPath><mask id="9151c7586c"><g filter="url(#97ac230f68)"><rect x="-84.192" width="1010.304" fill="#000000" y="-59.549999" height="714.599985" fill-opacity="0.24"/></g></mask><clipPath id="065f5ceff2"><rect x="0" width="298" y="0" height="254"/></clipPath></defs><g clip-path="url(#912b815c03)"><g clip-path="url(#0f779233ee)"><path fill="#000000" d="M 173.445312 59.476562 L 619.011719 59.476562 L 619.011719 505.046875 L 173.445312 505.046875 Z M 173.445312 59.476562 " fill-opacity="1" fill-rule="nonzero"/></g></g><g clip-path="url(#f33cc4a22a)"><g clip-path="url(#857c498bcb)"><path stroke-linecap="butt" transform="matrix(0.749371, 0, 0, 0.749371, 173.4441, 59.477615)" fill="none" stroke-linejoin="miter" d="M 297.287496 -0.001404 C 133.102872 -0.001404 0.001618 133.09985 0.001618 297.289687 C 0.001618 461.479524 133.102872 594.575565 297.287496 594.575565 C 461.477333 594.575565 594.578587 461.479524 594.578587 297.289687 C 594.578587 133.09985 461.477333 -0.001404 297.287496 -0.001404 Z M 297.287496 -0.001404 " stroke="#000000" stroke-width="4" stroke-opacity="1" stroke-miterlimit="4"/></g></g><g mask="url(#9151c7586c)"><g transform="matrix(1, 0, 0, 1, 248, 170)"><g clip-path="url(#065f5ceff2)"><g fill="#00ff84" fill-opacity="1"><g transform="translate(2.151442, 193.757579)"><g><path d="M 68.65625 -135 C 68.65625 -132.050781 67.722656 -129.484375 65.859375 -127.296875 C 64.003906 -125.117188 61.796875 -123.328125 59.234375 -121.921875 C 56.921875 -120.515625 54.546875 -119.007812 52.109375 -117.40625 C 49.679688 -115.800781 47.441406 -114.003906 45.390625 -112.015625 C 43.335938 -110.023438 41.671875 -107.8125 40.390625 -105.375 C 39.109375 -102.945312 38.46875 -100.191406 38.46875 -97.109375 C 38.46875 -94.421875 39.109375 -91.984375 40.390625 -89.796875 C 41.671875 -87.617188 43.238281 -85.472656 45.09375 -83.359375 C 46.957031 -81.242188 49.007812 -79.066406 51.25 -76.828125 C 53.488281 -74.585938 55.535156 -72.085938 57.390625 -69.328125 C 59.253906 -66.566406 60.828125 -63.457031 62.109375 -60 C 63.390625 -56.539062 64.03125 -52.503906 64.03125 -47.890625 C 64.03125 -44.679688 63.359375 -41.054688 62.015625 -37.015625 C 60.671875 -32.984375 58.84375 -28.914062 56.53125 -24.8125 C 54.226562 -20.707031 51.503906 -16.726562 48.359375 -12.875 C 45.222656 -9.03125 41.890625 -5.601562 38.359375 -2.59375 C 34.835938 0.414062 31.148438 2.847656 27.296875 4.703125 C 23.453125 6.566406 19.738281 7.5 16.15625 7.5 C 12.175781 7.5 8.648438 6.410156 5.578125 4.234375 C 2.503906 2.054688 0.96875 -1.210938 0.96875 -5.578125 C 0.96875 -8.523438 1.671875 -11.25 3.078125 -13.75 C 4.484375 -16.25 6.210938 -18.648438 8.265625 -20.953125 C 10.316406 -23.265625 12.59375 -25.507812 15.09375 -27.6875 C 17.59375 -29.875 19.867188 -32.054688 21.921875 -34.234375 C 23.972656 -36.410156 25.703125 -38.679688 27.109375 -41.046875 C 28.523438 -43.421875 29.234375 -45.957031 29.234375 -48.65625 C 29.234375 -52.375 27.914062 -56.1875 25.28125 -60.09375 C 22.65625 -64.007812 19.738281 -68.050781 16.53125 -72.21875 C 13.332031 -76.382812 10.414062 -80.644531 7.78125 -85 C 5.15625 -89.351562 3.84375 -93.773438 3.84375 -98.265625 C 3.84375 -103.773438 5.316406 -109.578125 8.265625 -115.671875 C 11.210938 -121.765625 14.992188 -127.34375 19.609375 -132.40625 C 24.222656 -137.46875 29.414062 -141.664062 35.1875 -145 C 40.957031 -148.332031 46.664062 -150 52.3125 -150 C 56.789062 -150 60.632812 -148.648438 63.84375 -145.953125 C 67.050781 -143.265625 68.65625 -139.613281 68.65625 -135 Z M 68.65625 -135 "/></g></g><g transform="translate(71.765917, 193.757579)"><g><path d="M 124.03125 -112.890625 C 124.03125 -105.191406 123.515625 -97.59375 122.484375 -90.09375 C 121.460938 -82.59375 120.25 -75.191406 118.84375 -67.890625 C 118.457031 -65.960938 117.878906 -62.847656 117.109375 -58.546875 C 116.335938 -54.253906 115.40625 -49.476562 114.3125 -44.21875 C 113.226562 -38.96875 111.914062 -33.519531 110.375 -27.875 C 108.84375 -22.238281 107.144531 -17.113281 105.28125 -12.5 C 103.425781 -7.882812 101.375 -4.066406 99.125 -1.046875 C 96.882812 1.960938 94.484375 3.46875 91.921875 3.46875 C 89.359375 3.46875 86.890625 2.1875 84.515625 -0.375 C 82.148438 -2.945312 79.972656 -6.1875 77.984375 -10.09375 C 75.992188 -14.007812 74.164062 -18.398438 72.5 -23.265625 C 70.832031 -28.140625 69.390625 -32.851562 68.171875 -37.40625 C 66.953125 -41.957031 65.925781 -46.125 65.09375 -49.90625 C 64.257812 -53.6875 63.648438 -56.539062 63.265625 -58.46875 C 62.753906 -56.800781 61.953125 -54.140625 60.859375 -50.484375 C 59.773438 -46.828125 58.398438 -42.722656 56.734375 -38.171875 C 55.066406 -33.617188 53.207031 -28.96875 51.15625 -24.21875 C 49.101562 -19.476562 46.953125 -15.117188 44.703125 -11.140625 C 42.460938 -7.171875 40.125 -3.90625 37.6875 -1.34375 C 35.25 1.21875 32.816406 2.5 30.390625 2.5 C 27.179688 2.5 24.359375 1.085938 21.921875 -1.734375 C 19.484375 -4.554688 17.429688 -8.175781 15.765625 -12.59375 C 14.097656 -17.019531 12.6875 -21.957031 11.53125 -27.40625 C 10.382812 -32.851562 9.488281 -38.234375 8.84375 -43.546875 C 8.207031 -48.867188 7.695312 -53.835938 7.3125 -58.453125 C 6.925781 -63.078125 6.664062 -66.734375 6.53125 -69.421875 C 6.15625 -75.578125 5.804688 -81.601562 5.484375 -87.5 C 5.160156 -93.394531 5 -99.421875 5 -105.578125 C 5 -107.753906 5.0625 -110.734375 5.1875 -114.515625 C 5.320312 -118.296875 5.804688 -122.015625 6.640625 -125.671875 C 7.472656 -129.328125 8.753906 -132.53125 10.484375 -135.28125 C 12.210938 -138.039062 14.742188 -139.550781 18.078125 -139.8125 C 20.898438 -139.9375 23.335938 -138.78125 25.390625 -136.34375 C 27.441406 -133.90625 29.171875 -130.664062 30.578125 -126.625 C 31.984375 -122.59375 33.101562 -118.109375 33.9375 -113.171875 C 34.769531 -108.234375 35.410156 -103.457031 35.859375 -98.84375 C 36.304688 -94.226562 36.59375 -90 36.71875 -86.15625 C 36.851562 -82.3125 36.859375 -79.488281 36.734375 -77.6875 L 36.53125 -72.6875 C 36.914062 -74.351562 37.585938 -76.984375 38.546875 -80.578125 C 39.515625 -84.171875 40.703125 -88.238281 42.109375 -92.78125 C 43.523438 -97.332031 45.03125 -102.007812 46.625 -106.8125 C 48.226562 -111.625 49.925781 -116.015625 51.71875 -119.984375 C 53.519531 -123.960938 55.316406 -127.265625 57.109375 -129.890625 C 58.910156 -132.523438 60.644531 -133.90625 62.3125 -134.03125 C 64.488281 -134.164062 66.566406 -132.882812 68.546875 -130.1875 C 70.535156 -127.5 72.332031 -124.003906 73.9375 -119.703125 C 75.539062 -115.410156 76.984375 -110.632812 78.265625 -105.375 C 79.546875 -100.125 80.664062 -95.03125 81.625 -90.09375 C 82.59375 -85.15625 83.332031 -80.695312 83.84375 -76.71875 C 84.351562 -72.75 84.738281 -69.929688 85 -68.265625 C 85.125 -70.316406 85.441406 -73.550781 85.953125 -77.96875 C 86.472656 -82.394531 87.179688 -87.332031 88.078125 -92.78125 C 88.972656 -98.226562 90.09375 -103.804688 91.4375 -109.515625 C 92.789062 -115.222656 94.363281 -120.445312 96.15625 -125.1875 C 97.945312 -129.9375 99.992188 -133.816406 102.296875 -136.828125 C 104.609375 -139.835938 107.175781 -141.34375 110 -141.34375 C 113.207031 -141.34375 115.769531 -140.285156 117.6875 -138.171875 C 119.613281 -136.054688 121.023438 -133.488281 121.921875 -130.46875 C 122.816406 -127.457031 123.390625 -124.316406 123.640625 -121.046875 C 123.898438 -117.785156 124.03125 -115.066406 124.03125 -112.890625 Z M 124.03125 -112.890625 "/></g></g><g transform="translate(197.725808, 193.757579)"><g><path d="M 97.5 -26.53125 C 97.5 -23.332031 96.179688 -20.320312 93.546875 -17.5 C 90.921875 -14.675781 87.523438 -12.109375 83.359375 -9.796875 C 79.191406 -7.492188 74.546875 -5.476562 69.421875 -3.75 C 64.296875 -2.019531 59.234375 -0.546875 54.234375 0.671875 C 49.234375 1.890625 44.519531 2.816406 40.09375 3.453125 C 35.675781 4.097656 32.179688 4.421875 29.609375 4.421875 C 27.179688 4.421875 24.585938 4.195312 21.828125 3.75 C 19.066406 3.300781 16.789062 2.304688 15 0.765625 C 13.976562 -0.00390625 13.082031 -1.734375 12.3125 -4.421875 C 11.539062 -7.117188 10.800781 -10.320312 10.09375 -14.03125 C 9.382812 -17.75 8.773438 -21.753906 8.265625 -26.046875 C 7.753906 -30.347656 7.335938 -34.550781 7.015625 -38.65625 C 6.691406 -42.757812 6.4375 -46.539062 6.25 -50 C 6.0625 -53.457031 5.96875 -56.148438 5.96875 -58.078125 C 5.96875 -61.285156 6.0625 -65.160156 6.25 -69.703125 C 6.4375 -74.253906 6.722656 -79.125 7.109375 -84.3125 C 7.492188 -89.507812 8.003906 -94.800781 8.640625 -100.1875 C 9.285156 -105.570312 10.023438 -110.664062 10.859375 -115.46875 C 11.691406 -120.28125 12.71875 -124.609375 13.9375 -128.453125 C 15.15625 -132.304688 16.472656 -135.320312 17.890625 -137.5 C 20.316406 -140.957031 23.390625 -142.6875 27.109375 -142.6875 C 29.679688 -142.6875 31.863281 -141.820312 33.65625 -140.09375 C 35.445312 -138.363281 36.882812 -136.117188 37.96875 -133.359375 C 39.0625 -130.609375 39.894531 -127.53125 40.46875 -124.125 C 41.050781 -120.726562 41.46875 -117.363281 41.71875 -114.03125 C 41.976562 -110.695312 42.109375 -107.617188 42.109375 -104.796875 C 42.109375 -101.984375 42.109375 -99.742188 42.109375 -98.078125 C 42.109375 -88.078125 41.882812 -78.171875 41.4375 -68.359375 C 40.988281 -58.554688 40.765625 -48.65625 40.765625 -38.65625 L 40.765625 -31.15625 C 46.535156 -32.945312 52.816406 -34.644531 59.609375 -36.25 C 66.410156 -37.851562 72.882812 -38.65625 79.03125 -38.65625 C 81.21875 -38.65625 83.429688 -38.523438 85.671875 -38.265625 C 87.910156 -38.015625 89.894531 -37.472656 91.625 -36.640625 C 93.363281 -35.804688 94.773438 -34.585938 95.859375 -32.984375 C 96.953125 -31.378906 97.5 -29.226562 97.5 -26.53125 Z M 97.5 -26.53125 "/></g></g></g></g></g></g><g fill="#ffffff" fill-opacity="1"><g transform="translate(261.591195, 348.630871)"><g><path d="M 68.65625 -135 C 68.65625 -132.050781 67.722656 -129.484375 65.859375 -127.296875 C 64.003906 -125.117188 61.796875 -123.328125 59.234375 -121.921875 C 56.921875 -120.515625 54.546875 -119.007812 52.109375 -117.40625 C 49.679688 -115.800781 47.441406 -114.003906 45.390625 -112.015625 C 43.335938 -110.023438 41.671875 -107.8125 40.390625 -105.375 C 39.109375 -102.945312 38.46875 -100.191406 38.46875 -97.109375 C 38.46875 -94.421875 39.109375 -91.984375 40.390625 -89.796875 C 41.671875 -87.617188 43.238281 -85.472656 45.09375 -83.359375 C 46.957031 -81.242188 49.007812 -79.066406 51.25 -76.828125 C 53.488281 -74.585938 55.535156 -72.085938 57.390625 -69.328125 C 59.253906 -66.566406 60.828125 -63.457031 62.109375 -60 C 63.390625 -56.539062 64.03125 -52.503906 64.03125 -47.890625 C 64.03125 -44.679688 63.359375 -41.054688 62.015625 -37.015625 C 60.671875 -32.984375 58.84375 -28.914062 56.53125 -24.8125 C 54.226562 -20.707031 51.503906 -16.726562 48.359375 -12.875 C 45.222656 -9.03125 41.890625 -5.601562 38.359375 -2.59375 C 34.835938 0.414062 31.148438 2.847656 27.296875 4.703125 C 23.453125 6.566406 19.738281 7.5 16.15625 7.5 C 12.175781 7.5 8.648438 6.410156 5.578125 4.234375 C 2.503906 2.054688 0.96875 -1.210938 0.96875 -5.578125 C 0.96875 -8.523438 1.671875 -11.25 3.078125 -13.75 C 4.484375 -16.25 6.210938 -18.648438 8.265625 -20.953125 C 10.316406 -23.265625 12.59375 -25.507812 15.09375 -27.6875 C 17.59375 -29.875 19.867188 -32.054688 21.921875 -34.234375 C 23.972656 -36.410156 25.703125 -38.679688 27.109375 -41.046875 C 28.523438 -43.421875 29.234375 -45.957031 29.234375 -48.65625 C 29.234375 -52.375 27.914062 -56.1875 25.28125 -60.09375 C 22.65625 -64.007812 19.738281 -68.050781 16.53125 -72.21875 C 13.332031 -76.382812 10.414062 -80.644531 7.78125 -85 C 5.15625 -89.351562 3.84375 -93.773438 3.84375 -98.265625 C 3.84375 -103.773438 5.316406 -109.578125 8.265625 -115.671875 C 11.210938 -121.765625 14.992188 -127.34375 19.609375 -132.40625 C 24.222656 -137.46875 29.414062 -141.664062 35.1875 -145 C 40.957031 -148.332031 46.664062 -150 52.3125 -150 C 56.789062 -150 60.632812 -148.648438 63.84375 -145.953125 C 67.050781 -143.265625 68.65625 -139.613281 68.65625 -135 Z M 68.65625 -135 "/></g></g><g transform="translate(331.20567, 348.630871)"><g><path d="M 124.03125 -112.890625 C 124.03125 -105.191406 123.515625 -97.59375 122.484375 -90.09375 C 121.460938 -82.59375 120.25 -75.191406 118.84375 -67.890625 C 118.457031 -65.960938 117.878906 -62.847656 117.109375 -58.546875 C 116.335938 -54.253906 115.40625 -49.476562 114.3125 -44.21875 C 113.226562 -38.96875 111.914062 -33.519531 110.375 -27.875 C 108.84375 -22.238281 107.144531 -17.113281 105.28125 -12.5 C 103.425781 -7.882812 101.375 -4.066406 99.125 -1.046875 C 96.882812 1.960938 94.484375 3.46875 91.921875 3.46875 C 89.359375 3.46875 86.890625 2.1875 84.515625 -0.375 C 82.148438 -2.945312 79.972656 -6.1875 77.984375 -10.09375 C 75.992188 -14.007812 74.164062 -18.398438 72.5 -23.265625 C 70.832031 -28.140625 69.390625 -32.851562 68.171875 -37.40625 C 66.953125 -41.957031 65.925781 -46.125 65.09375 -49.90625 C 64.257812 -53.6875 63.648438 -56.539062 63.265625 -58.46875 C 62.753906 -56.800781 61.953125 -54.140625 60.859375 -50.484375 C 59.773438 -46.828125 58.398438 -42.722656 56.734375 -38.171875 C 55.066406 -33.617188 53.207031 -28.96875 51.15625 -24.21875 C 49.101562 -19.476562 46.953125 -15.117188 44.703125 -11.140625 C 42.460938 -7.171875 40.125 -3.90625 37.6875 -1.34375 C 35.25 1.21875 32.816406 2.5 30.390625 2.5 C 27.179688 2.5 24.359375 1.085938 21.921875 -1.734375 C 19.484375 -4.554688 17.429688 -8.175781 15.765625 -12.59375 C 14.097656 -17.019531 12.6875 -21.957031 11.53125 -27.40625 C 10.382812 -32.851562 9.488281 -38.234375 8.84375 -43.546875 C 8.207031 -48.867188 7.695312 -53.835938 7.3125 -58.453125 C 6.925781 -63.078125 6.664062 -66.734375 6.53125 -69.421875 C 6.15625 -75.578125 5.804688 -81.601562 5.484375 -87.5 C 5.160156 -93.394531 5 -99.421875 5 -105.578125 C 5 -107.753906 5.0625 -110.734375 5.1875 -114.515625 C 5.320312 -118.296875 5.804688 -122.015625 6.640625 -125.671875 C 7.472656 -129.328125 8.753906 -132.53125 10.484375 -135.28125 C 12.210938 -138.039062 14.742188 -139.550781 18.078125 -139.8125 C 20.898438 -139.9375 23.335938 -138.78125 25.390625 -136.34375 C 27.441406 -133.90625 29.171875 -130.664062 30.578125 -126.625 C 31.984375 -122.59375 33.101562 -118.109375 33.9375 -113.171875 C 34.769531 -108.234375 35.410156 -103.457031 35.859375 -98.84375 C 36.304688 -94.226562 36.59375 -90 36.71875 -86.15625 C 36.851562 -82.3125 36.859375 -79.488281 36.734375 -77.6875 L 36.53125 -72.6875 C 36.914062 -74.351562 37.585938 -76.984375 38.546875 -80.578125 C 39.515625 -84.171875 40.703125 -88.238281 42.109375 -92.78125 C 43.523438 -97.332031 45.03125 -102.007812 46.625 -106.8125 C 48.226562 -111.625 49.925781 -116.015625 51.71875 -119.984375 C 53.519531 -123.960938 55.316406 -127.265625 57.109375 -129.890625 C 58.910156 -132.523438 60.644531 -133.90625 62.3125 -134.03125 C 64.488281 -134.164062 66.566406 -132.882812 68.546875 -130.1875 C 70.535156 -127.5 72.332031 -124.003906 73.9375 -119.703125 C 75.539062 -115.410156 76.984375 -110.632812 78.265625 -105.375 C 79.546875 -100.125 80.664062 -95.03125 81.625 -90.09375 C 82.59375 -85.15625 83.332031 -80.695312 83.84375 -76.71875 C 84.351562 -72.75 84.738281 -69.929688 85 -68.265625 C 85.125 -70.316406 85.441406 -73.550781 85.953125 -77.96875 C 86.472656 -82.394531 87.179688 -87.332031 88.078125 -92.78125 C 88.972656 -98.226562 90.09375 -103.804688 91.4375 -109.515625 C 92.789062 -115.222656 94.363281 -120.445312 96.15625 -125.1875 C 97.945312 -129.9375 99.992188 -133.816406 102.296875 -136.828125 C 104.609375 -139.835938 107.175781 -141.34375 110 -141.34375 C 113.207031 -141.34375 115.769531 -140.285156 117.6875 -138.171875 C 119.613281 -136.054688 121.023438 -133.488281 121.921875 -130.46875 C 122.816406 -127.457031 123.390625 -124.316406 123.640625 -121.046875 C 123.898438 -117.785156 124.03125 -115.066406 124.03125 -112.890625 Z M 124.03125 -112.890625 "/></g></g><g transform="translate(457.16556, 348.630871)"><g><path d="M 97.5 -26.53125 C 97.5 -23.332031 96.179688 -20.320312 93.546875 -17.5 C 90.921875 -14.675781 87.523438 -12.109375 83.359375 -9.796875 C 79.191406 -7.492188 74.546875 -5.476562 69.421875 -3.75 C 64.296875 -2.019531 59.234375 -0.546875 54.234375 0.671875 C 49.234375 1.890625 44.519531 2.816406 40.09375 3.453125 C 35.675781 4.097656 32.179688 4.421875 29.609375 4.421875 C 27.179688 4.421875 24.585938 4.195312 21.828125 3.75 C 19.066406 3.300781 16.789062 2.304688 15 0.765625 C 13.976562 -0.00390625 13.082031 -1.734375 12.3125 -4.421875 C 11.539062 -7.117188 10.800781 -10.320312 10.09375 -14.03125 C 9.382812 -17.75 8.773438 -21.753906 8.265625 -26.046875 C 7.753906 -30.347656 7.335938 -34.550781 7.015625 -38.65625 C 6.691406 -42.757812 6.4375 -46.539062 6.25 -50 C 6.0625 -53.457031 5.96875 -56.148438 5.96875 -58.078125 C 5.96875 -61.285156 6.0625 -65.160156 6.25 -69.703125 C 6.4375 -74.253906 6.722656 -79.125 7.109375 -84.3125 C 7.492188 -89.507812 8.003906 -94.800781 8.640625 -100.1875 C 9.285156 -105.570312 10.023438 -110.664062 10.859375 -115.46875 C 11.691406 -120.28125 12.71875 -124.609375 13.9375 -128.453125 C 15.15625 -132.304688 16.472656 -135.320312 17.890625 -137.5 C 20.316406 -140.957031 23.390625 -142.6875 27.109375 -142.6875 C 29.679688 -142.6875 31.863281 -141.820312 33.65625 -140.09375 C 35.445312 -138.363281 36.882812 -136.117188 37.96875 -133.359375 C 39.0625 -130.609375 39.894531 -127.53125 40.46875 -124.125 C 41.050781 -120.726562 41.46875 -117.363281 41.71875 -114.03125 C 41.976562 -110.695312 42.109375 -107.617188 42.109375 -104.796875 C 42.109375 -101.984375 42.109375 -99.742188 42.109375 -98.078125 C 42.109375 -88.078125 41.882812 -78.171875 41.4375 -68.359375 C 40.988281 -58.554688 40.765625 -48.65625 40.765625 -38.65625 L 40.765625 -31.15625 C 46.535156 -32.945312 52.816406 -34.644531 59.609375 -36.25 C 66.410156 -37.851562 72.882812 -38.65625 79.03125 -38.65625 C 81.21875 -38.65625 83.429688 -38.523438 85.671875 -38.265625 C 87.910156 -38.015625 89.894531 -37.472656 91.625 -36.640625 C 93.363281 -35.804688 94.773438 -34.585938 95.859375 -32.984375 C 96.953125 -31.378906 97.5 -29.226562 97.5 -26.53125 Z M 97.5 -26.53125 "/></g></g></g></svg>