<?xml version="1.0" standalone="no"?>
<!DOCTYPE svg PUBLIC "-//W3C//DTD SVG 20010904//EN"
 "http://www.w3.org/TR/2001/REC-SVG-20010904/DTD/svg10.dtd">
<svg version="1.0" xmlns="http://www.w3.org/2000/svg"
 width="547.000000pt" height="456.000000pt" viewBox="0 0 547.000000 456.000000"
 preserveAspectRatio="xMidYMid meet">

<g transform="translate(0.000000,456.000000) scale(0.100000,-0.100000)"
fill="#000000" stroke="none">
<path d="M1300 3749 c-73 -29 -96 -97 -87 -258 6 -104 26 -192 61 -258 9 -18
14 -33 12 -33 -21 0 146 -189 185 -211 15 -8 15 -12 -3 -49 -40 -80 -33 -170
18 -245 24 -36 26 -71 3 -63 -24 8 -112 -79 -144 -142 -45 -91 -42 -120 21
-190 55 -61 106 -84 184 -83 68 0 216 34 254 58 11 7 89 32 171 55 83 22 159
45 170 50 25 11 279 60 284 54 11 -10 -59 -63 -97 -73 -38 -11 -68 -32 -137
-94 -52 -48 -183 -141 -236 -168 -53 -26 -67 -29 -133 -26 -40 2 -78 7 -84 11
-6 3 -29 4 -51 0 -31 -5 -41 -11 -41 -25 0 -45 70 -76 102 -46 8 8 44 12 99
13 77 0 94 4 153 33 72 35 179 128 169 145 -3 6 -3 8 2 4 4 -4 19 2 33 12 47
38 55 21 10 -22 -108 -104 -168 -213 -169 -311 -2 -102 4 -172 14 -186 9 -10
-1 -24 -41 -63 -29 -27 -52 -52 -52 -54 0 -3 -14 -19 -32 -36 -30 -30 -31 -31
-12 -45 38 -28 65 -7 110 87 4 8 21 31 37 52 29 36 29 36 28 172 l-2 136 42
63 c48 72 127 157 146 157 18 0 16 -15 -3 -30 -30 -26 -35 -47 -14 -73 19 -24
19 -25 -5 -91 -26 -72 -26 -138 2 -168 8 -9 18 -38 21 -63 4 -39 7 -45 23 -40
16 5 19 1 19 -30 0 -29 5 -37 25 -45 14 -5 25 -17 25 -26 0 -12 6 -15 24 -10
14 3 28 1 34 -7 11 -12 12 -17 12 -40 0 -14 60 -47 86 -47 8 0 17 7 20 15 4 9
19 15 36 15 17 0 27 -4 23 -10 -3 -6 1 -13 10 -17 10 -3 21 0 25 7 4 7 13 9
19 6 6 -4 9 -11 6 -16 -10 -17 36 3 49 21 8 12 21 17 36 14 18 -4 31 4 53 30
16 19 37 35 47 35 10 0 25 8 32 18 7 9 22 22 33 28 12 6 29 37 42 75 20 59 24
65 58 73 35 9 36 11 33 50 -2 39 13 59 27 35 7 -10 7 -164 1 -246 -2 -23 -24
-55 -82 -122 -93 -108 -106 -133 -115 -226 -3 -38 -9 -79 -13 -90 -5 -15 0
-23 21 -32 37 -18 59 -17 44 0 -6 8 -9 16 -7 18 9 10 13 80 6 125 l-8 49 79
84 c111 118 133 167 137 306 3 96 0 120 -22 190 -15 47 -22 83 -17 88 12 12
27 -18 36 -68 3 -22 10 -49 15 -60 4 -11 13 -58 18 -105 6 -47 20 -110 31
-140 23 -61 106 -169 140 -182 12 -4 26 -20 33 -35 28 -65 58 -78 99 -43 l24
20 -25 22 c-14 13 -27 27 -30 33 -3 5 -13 8 -22 7 -10 -2 -18 3 -18 10 0 7
-15 22 -34 32 -55 30 -89 71 -90 110 -1 19 -4 32 -8 29 -5 -2 -8 2 -8 10 0 8
-6 27 -14 43 -16 32 -43 167 -52 256 -4 42 -13 66 -35 94 -24 30 -29 46 -28
88 l0 51 27 -34 c15 -18 51 -62 81 -98 29 -35 104 -144 166 -241 63 -97 117
-181 122 -187 4 -5 15 -23 23 -40 8 -16 49 -64 90 -106 67 -68 81 -78 130 -89
41 -9 70 -9 114 -1 99 18 136 70 136 191 0 44 -7 88 -19 120 -17 46 -18 50 -3
50 30 1 106 40 140 73 38 36 72 96 72 127 0 14 7 20 23 21 143 5 216 23 331
81 69 34 181 114 211 150 127 152 132 244 16 312 -56 32 -142 69 -231 99 -142
47 -361 46 -553 -2 -108 -27 -224 -71 -427 -161 -52 -23 -127 -50 -165 -60
-84 -22 -205 -33 -205 -20 0 6 7 10 15 10 29 0 119 162 139 250 8 36 105 73
248 94 33 5 81 28 133 64 28 20 40 35 40 52 0 36 -29 36 -66 1 -17 -17 -35
-28 -40 -25 -4 2 -42 -16 -84 -41 -74 -45 -77 -46 -123 -36 -42 9 -51 7 -82
-13 -20 -13 -43 -38 -52 -57 -79 -167 -104 -213 -135 -248 -19 -23 -39 -41
-44 -41 -22 0 -6 32 38 75 34 34 43 49 35 57 -9 9 -8 16 4 29 12 13 13 22 5
37 -8 16 -7 21 6 26 14 6 14 8 -3 20 -15 11 -16 17 -6 29 10 11 9 17 -3 27 -8
7 -12 17 -8 23 3 5 1 7 -4 4 -6 -4 -18 2 -27 12 -14 16 -15 23 -6 41 16 30 4
74 -33 112 -22 24 -31 44 -33 73 -2 39 -1 41 101 125 57 47 99 86 94 88 -10 4
-96 -64 -177 -140 l-54 -49 -51 20 c-29 11 -60 22 -71 25 -14 5 -17 13 -13 39
6 36 -29 216 -45 232 -7 7 -8 0 -4 -20 12 -61 26 -171 26 -211 0 -36 -4 -43
-27 -52 -16 -6 -63 -14 -106 -18 -42 -3 -80 -10 -83 -15 -2 -4 5 -18 16 -29
25 -25 23 -30 -16 -33 -27 -2 -64 -28 -64 -46 0 -5 -9 -11 -21 -14 -12 -3 -18
-10 -15 -16 4 -5 -3 -15 -14 -21 -11 -6 -23 -22 -26 -35 -3 -14 -11 -25 -16
-25 -6 0 -8 -23 -6 -55 1 -30 0 -55 -4 -55 -16 0 -21 57 -9 114 7 34 12 74 12
90 0 16 9 50 20 77 26 60 20 111 -17 136 -66 46 -84 66 -90 98 -3 19 -12 39
-20 46 -8 6 -14 25 -14 41 0 25 -3 28 -20 23 -22 -7 -26 5 -9 22 16 16 -8 85
-28 81 -30 -6 -38 -33 -24 -80 16 -55 51 -128 62 -128 4 0 20 -20 34 -44 14
-24 33 -50 41 -57 8 -7 22 -28 30 -48 8 -19 20 -39 27 -43 9 -5 9 -15 -2 -40
-28 -69 -61 -192 -61 -229 0 -116 -114 31 -286 368 -109 213 -160 289 -259
389 -127 127 -284 219 -455 265 -111 30 -150 34 -190 18z m128 -79 c50 -36 96
-97 113 -148 16 -52 29 -62 29 -24 0 47 -23 95 -71 147 -23 25 -39 48 -36 51
9 9 101 -23 178 -61 84 -43 214 -141 271 -204 56 -63 120 -193 155 -317 19
-69 29 -91 31 -72 3 23 -11 94 -34 173 -14 47 21 -11 116 -193 104 -202 136
-254 204 -336 48 -59 35 -56 -71 15 -101 68 -156 126 -184 194 -12 30 -26 55
-30 55 -8 0 16 -92 33 -123 9 -17 7 -17 -14 -6 -74 39 -243 164 -308 229 -96
95 -152 169 -201 267 -49 97 -52 64 -3 -37 37 -79 93 -159 153 -223 l36 -39
-50 6 c-41 5 -46 4 -25 -5 84 -36 190 -93 220 -119 l35 -30 -130 7 c-141 6
-249 -2 -239 -19 4 -6 28 -7 63 -3 31 3 121 1 200 -5 139 -10 148 -12 210 -47
l66 -37 -35 -15 -35 -15 27 -4 c15 -2 36 1 46 7 16 9 39 -1 128 -55 60 -37
121 -74 136 -83 16 -9 28 -19 28 -23 0 -4 -30 -4 -67 -1 -42 3 -146 -3 -268
-16 -197 -22 -313 -25 -270 -7 97 41 135 62 168 94 46 45 49 65 3 25 -49 -43
-115 -72 -205 -90 l-79 -16 -49 28 c-155 89 -211 196 -171 327 10 35 14 39 37
33 20 -4 5 14 -61 77 -49 46 -88 86 -88 90 0 4 24 -4 54 -17 61 -27 150 -42
159 -28 3 5 -17 15 -46 23 -64 16 -148 52 -189 81 -58 42 -118 221 -118 351 0
61 27 128 61 152 35 24 71 20 117 -14z m1472 -713 c0 -26 -32 -57 -70 -68 -22
-7 -43 -9 -47 -6 -9 10 27 46 67 68 42 22 50 23 50 6z m83 -1 c4 -9 14 -12 26
-9 15 4 21 1 21 -10 0 -10 6 -13 20 -10 22 6 24 -5 14 -69 -6 -36 -8 -38 -46
-38 -36 0 -84 21 -100 44 -8 11 38 106 51 106 5 0 11 -6 14 -14z m162 -100
c20 -30 30 -91 17 -100 -18 -11 -52 44 -52 85 0 45 13 50 35 15z m-342 -5 c17
-6 17 -8 3 -20 -28 -24 -18 -33 26 -26 38 7 41 6 29 -8 -19 -24 -4 -40 21 -23
14 10 26 12 39 5 11 -5 28 -13 39 -19 11 -5 27 -10 35 -10 8 0 15 -9 15 -20 0
-27 26 -25 34 3 6 21 7 21 27 -10 25 -39 43 -43 37 -8 -5 26 -1 29 27 19 18
-7 50 -63 41 -72 -3 -3 -1 -11 5 -19 9 -9 8 -17 0 -27 -7 -8 -9 -25 -6 -38 7
-28 -9 -78 -25 -78 -6 0 -19 7 -28 16 -19 20 -30 1 -12 -20 15 -19 3 -25 -58
-33 -31 -3 -52 -1 -56 5 -4 6 -13 9 -21 6 -8 -3 -22 1 -30 10 -22 21 -42 20
-73 -5 -25 -19 -27 -19 -39 -3 -7 10 -13 28 -13 40 0 18 -7 23 -40 29 -22 4
-40 11 -40 16 0 5 -9 9 -20 9 -11 0 -20 5 -20 10 0 6 -7 10 -15 10 -8 0 -15 7
-15 15 0 7 -7 18 -17 23 -14 9 -14 11 5 21 29 16 28 31 -2 31 -14 0 -27 4 -30
9 -8 12 21 68 39 75 8 3 15 14 15 25 0 17 31 45 70 63 19 8 31 8 53 -1z
m-1156 -287 c50 -24 165 -53 211 -54 13 0 21 -4 17 -9 -11 -19 -153 -91 -205
-104 -30 -8 -48 -17 -42 -21 24 -14 125 15 238 69 92 44 129 56 185 61 79 8
82 4 47 -57 -24 -43 -68 -67 -212 -118 -90 -32 -263 -71 -313 -71 -42 0 -98
18 -125 39 l-23 19 47 -5 c49 -6 105 3 94 14 -4 4 -26 6 -50 4 -23 -1 -61 5
-84 14 -35 14 -43 23 -48 51 -10 57 19 116 88 179 l61 55 31 -21 c17 -11 54
-32 83 -45z m2898 21 c96 -25 170 -53 162 -61 -3 -3 -35 -12 -72 -19 -67 -14
-155 -57 -155 -75 0 -15 10 -12 74 20 49 25 71 30 131 30 85 0 120 -20 131
-75 10 -53 -26 -113 -115 -198 -78 -73 -190 -139 -235 -139 -49 0 -143 23
-202 51 -35 17 -64 26 -64 20 0 -16 91 -68 129 -75 20 -3 45 -8 56 -11 20 -6
20 -6 0 -13 -11 -4 -66 -11 -123 -15 -84 -6 -101 -10 -91 -21 29 -35 -33 -139
-103 -173 -50 -24 -170 -29 -255 -11 -43 10 -53 17 -98 78 -45 60 -71 118 -92
207 -6 27 -7 27 -11 7 -7 -41 18 -129 54 -187 19 -32 33 -60 31 -62 -8 -7 -97
72 -174 156 -73 79 -214 206 -283 254 -13 9 -22 18 -19 20 2 2 76 -6 163 -19
l160 -23 33 -38 c18 -21 32 -32 33 -24 0 8 -8 23 -17 34 -18 20 -17 20 49 14
58 -5 77 -13 130 -48 100 -67 179 -128 230 -177 26 -25 51 -43 55 -39 14 15
-137 150 -263 235 -36 24 141 8 226 -21 41 -14 76 -24 78 -22 2 1 -16 14 -40
28 l-42 25 65 7 c78 9 204 47 282 86 78 40 72 55 -8 18 -143 -64 -199 -74
-435 -74 -210 0 -310 8 -310 24 0 5 12 11 28 14 30 6 94 46 99 63 2 6 -24 -3
-58 -20 -52 -25 -76 -31 -154 -34 -94 -4 -230 12 -241 29 -3 5 17 9 43 9 74 0
174 32 392 125 109 47 207 85 216 85 10 0 -9 -18 -41 -39 -62 -42 -125 -101
-107 -101 6 0 33 18 59 40 89 73 244 143 358 160 78 13 241 0 341 -25z m-2050
5 c3 -5 1 -10 -4 -10 -6 0 -11 5 -11 10 0 6 2 10 4 10 3 0 8 -4 11 -10z m-215
-84 c0 -32 -36 -58 -98 -71 -58 -12 -63 -11 -56 4 4 9 9 28 11 43 4 23 11 28
42 31 81 8 101 7 101 -7z m195 -1 c0 -9 -174 -49 -182 -41 -2 2 1 15 7 30 10
26 11 27 92 24 47 -2 83 -7 83 -13z m53 -113 c8 8 14 5 21 -15 6 -15 14 -27
19 -27 5 0 41 -21 81 -46 40 -26 83 -46 97 -46 13 0 24 -4 24 -8 0 -8 42 -22
75 -25 11 -1 48 -7 83 -14 51 -10 67 -10 79 0 12 11 17 10 24 -4 6 -9 19 -17
29 -17 18 0 47 -36 37 -47 -3 -2 -15 0 -26 6 -19 11 -20 10 -10 -16 9 -23 7
-30 -13 -45 -13 -10 -31 -18 -40 -18 -28 0 -22 -33 12 -68 32 -34 40 -58 16
-49 -8 3 -17 -2 -21 -11 -5 -14 -10 -10 -23 17 -20 41 -42 52 -42 22 0 -12 -4
-21 -10 -21 -5 0 -10 5 -10 10 0 6 -10 24 -21 40 -19 25 -24 27 -43 17 -11 -7
-24 -16 -28 -22 -4 -6 -12 -3 -20 7 -14 18 -68 15 -68 -4 0 -6 -6 -5 -15 2 -9
7 -26 9 -46 5 -27 -6 -31 -5 -26 9 4 9 1 17 -6 18 -7 0 -19 2 -27 2 -8 1 -14
7 -12 14 4 22 -35 51 -60 45 -20 -6 -21 -4 -10 9 10 13 10 17 -3 21 -8 4 -12
13 -9 22 7 16 -6 20 -21 6 -6 -4 -27 -11 -49 -14 -37 -6 -38 -5 -21 12 23 27
2 36 -37 17 -38 -19 -41 -20 -35 -3 2 6 -3 17 -12 23 -13 10 -9 14 24 23 22 6
47 11 56 11 27 0 28 10 7 58 -12 26 -17 47 -11 49 6 2 19 10 29 18 18 14 18
14 -3 15 -13 0 -23 3 -23 8 0 4 10 12 23 18 16 7 26 7 38 -3 11 -10 18 -10 27
-1z m705 -59 c-7 -2 -21 -2 -30 0 -10 3 -4 5 12 5 17 0 24 -2 18 -5z m-944
-78 c-9 -9 -19 -11 -29 -5 -12 7 -10 11 10 18 31 12 39 6 19 -13z m934 -32
c34 -25 66 -49 70 -53 4 -4 3 -19 -3 -35 l-11 -28 -68 74 c-60 64 -75 89 -55
89 3 0 33 -21 67 -47z m150 -126 l48 -42 -21 -40 c-11 -22 -24 -38 -28 -36
-16 10 -72 97 -72 113 0 21 10 48 19 48 3 0 28 -19 54 -43z m-977 -76 c-9 -16
-16 -32 -16 -36 0 -11 24 -4 43 13 19 16 20 16 15 -10 -6 -34 11 -37 37 -8 21
23 65 29 46 6 -15 -18 -40 -115 -31 -121 4 -3 10 -19 14 -36 6 -30 7 -31 24
-16 26 24 62 22 62 -3 0 -22 10 -26 27 -9 14 14 43 -10 43 -35 0 -20 24 -21
40 -1 7 8 18 15 25 15 7 0 15 8 19 18 3 9 10 24 15 32 5 8 12 27 16 43 5 24 8
26 25 17 15 -8 18 -17 13 -40 -7 -36 2 -38 34 -8 l23 22 -6 -32 c-4 -18 -2
-32 3 -32 18 0 33 24 33 52 0 15 5 28 10 28 6 0 10 -9 10 -20 0 -13 5 -18 15
-14 16 7 22 -21 6 -31 -5 -3 -12 -19 -16 -36 -4 -17 -13 -33 -21 -36 -7 -2
-16 -14 -20 -25 -3 -12 -21 -36 -39 -54 -35 -35 -84 -50 -205 -62 -36 -4 -71
-11 -78 -16 -19 -12 -68 11 -80 39 -6 13 -23 29 -37 37 -15 7 -36 31 -48 52
-12 22 -33 52 -47 68 -23 25 -26 35 -25 110 1 46 7 93 13 105 7 12 12 29 12
38 0 12 6 15 19 10 11 -3 22 -1 26 5 15 24 16 0 1 -29z m1106 -48 c44 -48 62
-78 98 -167 33 -82 54 -121 87 -154 23 -25 46 -43 49 -39 3 3 -6 18 -20 34
-24 26 -75 140 -91 206 l-7 28 46 -31 c58 -39 151 -78 208 -85 85 -12 85 -12
97 -59 15 -61 14 -142 -3 -174 -8 -15 -26 -38 -40 -51 -24 -22 -29 -23 -66
-12 -22 6 -56 26 -76 43 -19 17 -37 28 -40 26 -8 -9 48 -69 75 -81 26 -10 26
-11 3 -15 -89 -15 -201 97 -342 344 -71 123 -72 127 -66 177 12 85 15 86 88
10z"/>
<path d="M1440 3406 c0 -16 28 -42 36 -33 8 7 -14 47 -26 47 -6 0 -10 -6 -10
-14z"/>
<path d="M1370 3395 c0 -12 33 -55 41 -55 15 0 10 26 -9 43 -19 17 -32 22 -32
12z"/>
<path d="M1860 3242 c0 -15 28 -72 35 -72 3 0 5 9 5 19 0 21 -39 73 -40 53z"/>
<path d="M1927 3243 c-4 -6 -2 -24 5 -40 7 -19 12 -23 15 -12 5 21 -12 65 -20
52z"/>
<path d="M1750 2730 c-8 -5 -12 -11 -9 -14 7 -8 49 5 49 15 0 12 -21 11 -40
-1z"/>
<path d="M1833 2703 c-7 -2 -13 -9 -13 -14 0 -14 24 -11 46 6 19 14 19 14 -1
14 -11 0 -26 -3 -32 -6z"/>
<path d="M2732 2753 c2 -10 13 -19 26 -21 26 -4 28 6 5 24 -25 18 -35 17 -31
-3z"/>
<path d="M2727 2704 c-11 -11 3 -24 25 -24 17 0 18 2 8 15 -13 16 -23 19 -33
9z"/>
<path d="M3065 2630 c-8 -13 20 -24 40 -16 8 3 15 10 15 16 0 13 -47 13 -55 0z"/>
<path d="M3036 2581 c-3 -5 6 -12 20 -15 29 -8 39 -3 29 13 -8 13 -42 14 -49
2z"/>
<path d="M1504 2485 c-18 -15 -18 -15 5 -13 14 2 26 9 29 16 5 17 -10 15 -34
-3z"/>
<path d="M1568 2459 c-19 -10 -24 -29 -9 -29 5 0 19 9 32 20 26 21 9 28 -23 9z"/>
<path d="M1889 2404 c-12 -14 -11 -16 5 -13 11 2 21 10 24 17 5 17 -13 15 -29
-4z"/>
<path d="M1945 2400 c-3 -5 1 -10 9 -10 8 0 18 5 21 10 3 6 -1 10 -9 10 -8 0
-18 -4 -21 -10z"/>
<path d="M4019 2460 c-17 -13 -19 -19 -9 -19 16 0 50 22 50 33 0 12 -18 6 -41
-14z"/>
<path d="M4049 2420 c-20 -16 -21 -19 -7 -20 22 0 68 21 68 32 0 15 -38 8 -61
-12z"/>
<path d="M4495 2290 c-3 -5 3 -10 14 -10 11 0 23 5 26 10 3 6 -3 10 -14 10
-11 0 -23 -4 -26 -10z"/>
<path d="M4515 2230 c-8 -13 35 -13 55 0 11 7 7 10 -17 10 -17 0 -35 -4 -38
-10z"/>
<path d="M3750 2019 c0 -6 5 -19 11 -30 15 -28 29 -14 16 16 -12 25 -27 33
-27 14z"/>
<path d="M3833 1986 c4 -10 7 -22 7 -27 0 -5 5 -9 11 -9 15 0 7 43 -10 48 -10
3 -12 0 -8 -12z"/>
<path d="M2480 2300 c0 -5 9 -10 19 -10 11 0 23 5 26 10 4 6 -5 10 -19 10 -14
0 -26 -4 -26 -10z"/>
<path d="M2493 2265 c-3 -9 -3 -19 1 -22 8 -9 37 18 30 28 -8 14 -24 11 -31
-6z"/>
<path d="M2555 2240 c-3 -5 1 -10 9 -10 9 0 16 5 16 10 0 6 -4 10 -9 10 -6 0
-13 -4 -16 -10z"/>
<path d="M2610 2220 c0 -5 5 -10 10 -10 6 0 10 5 10 10 0 6 -4 10 -10 10 -5 0
-10 -4 -10 -10z"/>
<path d="M2845 2130 c3 -5 11 -10 16 -10 6 0 7 5 4 10 -3 6 -11 10 -16 10 -6
0 -7 -4 -4 -10z"/>
<path d="M2982 2124 c2 -11 11 -20 22 -22 13 -3 17 1 14 14 -2 11 -11 20 -22
22 -13 3 -17 -1 -14 -14z"/>
<path d="M2900 2114 c0 -8 5 -12 10 -9 6 3 10 10 10 16 0 5 -4 9 -10 9 -5 0
-10 -7 -10 -16z"/>
<path d="M2952 2094 c1 -9 9 -19 16 -22 9 -3 13 2 10 14 -1 9 -9 19 -16 22 -9
3 -13 -2 -10 -14z"/>
<path d="M2456 1764 c-7 -19 2 -37 15 -29 12 8 12 45 0 45 -5 0 -12 -7 -15
-16z"/>
<path d="M2490 1721 c0 -11 5 -23 10 -26 6 -4 10 5 10 19 0 14 -4 26 -10 26
-5 0 -10 -9 -10 -19z"/>
<path d="M2532 1681 c1 -33 23 -42 46 -19 17 17 15 28 -6 28 -10 0 -23 5 -29
11 -9 9 -12 4 -11 -20z"/>
<path d="M2674 1702 c-19 -13 -25 -42 -8 -42 15 0 28 22 22 39 -1 6 -8 7 -14
3z"/>
<path d="M2611 1674 c-7 -8 -11 -17 -9 -20 3 -2 13 5 23 16 10 11 14 20 9 20
-5 -1 -15 -8 -23 -16z"/>
<path d="M3477 1850 c3 -11 9 -20 14 -20 11 0 11 3 3 24 -9 23 -23 20 -17 -4z"/>
<path d="M3524 1820 c3 -14 6 -28 6 -32 0 -5 5 -8 10 -8 15 0 12 24 -6 46 -15
18 -15 18 -10 -6z"/>
<path d="M3800 1657 c0 -15 29 -57 30 -42 0 6 -3 20 -6 33 -7 24 -24 31 -24 9z"/>
<path d="M3870 1638 c0 -17 18 -44 24 -37 8 7 -5 49 -15 49 -5 0 -9 -6 -9 -12z"/>
</g>
</svg>
